# xmcd
#
# Track frame offsets:
#	150
#	17266
#	33576
#	52020
#	66374
#	87541
#	103103
#	119165
#	146666
#	162724
#	180141
#	201742
#	212229
#	232839
#
# Disc length: 3345 seconds
#
# Revision: 1
# Processed by: cddbd v1.5.2PL0 Copyright (c) Steve Scherf et al.
# Submitted via: audiograbber 1.83.01
#
DISCID=d30d0f0e
DTITLE=Hooray For The Riff Raff - My Dearest Darkest Neighbor
DYEAR=2013
DGENRE=Americana
TTITLE0=Delta Momma Blues
TTITLE1=Fine And Mellow
TTITLE2=My Morphine
TTITLE3=Black Jack Davey
TTITLE4=Western Cowboy
TTITLE5=Jealous Guy
TTITLE6=Just A Heart
TTITLE7=Angel Ballad
TTITLE8=Cuckoo
TTITLE9=People Talkin'
TTITLE10=River
TTITLE11=I'm Goin' Away
TTITLE12=Lonesome I Could Cry
TTITLE13=My Sweet Lord
EXTD=
EXTT0=
EXTT1=
EXTT2=
EXTT3=
EXTT4=
EXTT5=
EXTT6=
EXTT7=
EXTT8=
EXTT9=
EXTT10=
EXTT11=
EXTT12=
EXTT13=
PLAYORDER=
